<svg xmlns="http://www.w3.org/2000/svg" viewBox="0 0 111.45 28.05"><defs><style>.cls-1{opacity:0.5;}.cls-2{fill:#231f20;}</style></defs><path class="cls-2" d="M.25,27.65a.16.16,0,0,1-.1.05Q0,27.7,0,27.25a1.32,1.32,0,0,1,.18-.63.78.78,0,0,1,.67-.37A5.33,5.33,0,0,0,3.5,25.3a10.1,10.1,0,0,0,2.2-2,8.46,8.46,0,0,0,1.35-2.22l4.6-11.5A39.59,39.59,0,0,1,13.83,5,10.77,10.77,0,0,1,17,1.4,8.07,8.07,0,0,1,21.85,0a10.42,10.42,0,0,1,2.33.27,5.33,5.33,0,0,1,2,.88,2,2,0,0,1,.8,1.7v.3a1,1,0,0,1-.05.3A3.3,3.3,0,0,1,26,5.05a5.61,5.61,0,0,0-1.12,2c0,.23-.18.35-.45.35s-.28-.15-.15-.45a5.07,5.07,0,0,0,.63-1.43,6.28,6.28,0,0,0,.22-1.67,4.38,4.38,0,0,0-.6-2.3,2.19,2.19,0,0,0-2.05-1,5.42,5.42,0,0,0-2.65.75A6.28,6.28,0,0,0,17.5,3.9L8.25,21a14.76,14.76,0,0,1-2.37,3.43A5.78,5.78,0,0,1,4.1,25.65h12c1.6,0,3.08,0,4.45-.15s2.2-.35,2.5-.75a2.57,2.57,0,0,0,.5-1.5,2,2,0,0,0-1.35-1.85c-.1-.07-.15-.13-.15-.2s0-.13.13-.2a.27.27,0,0,1,.32,0,3.41,3.41,0,0,1,1.07.88,13.93,13.93,0,0,1,1.18,1.44,5.17,5.17,0,0,1,.7,1.23,2.83,2.83,0,0,1,.15.9c0,1.37-1.18,2.05-3.55,2.05q-2.8,0-6-.2t-6.33-.45c-2.08-.17-4-.28-5.87-.35a4.6,4.6,0,0,0-2.07.27A4.83,4.83,0,0,0,.25,27.65Z"/><path class="cls-2" d="M35.7,27.45a1.72,1.72,0,0,1-.85-.2.79.79,0,0,1-.35-.75,4.55,4.55,0,0,1,.35-1.6,18.69,18.69,0,0,1,.8-1.78c.3-.58.57-1.05.8-1.42-1.17,1.23-2.38,2.4-3.65,3.5a17.07,17.07,0,0,1-2.1,1.5,4.6,4.6,0,0,1-2.45.7.75.75,0,0,1-.7-.33,1.45,1.45,0,0,1-.2-.77.92.92,0,0,1,0-.35,13.42,13.42,0,0,1,1.25-4.05A21,21,0,0,1,31.1,18a17.17,17.17,0,0,1,2.95-3,6,6,0,0,1,3.75-1.3h5.75c.17,0,.25.07.25.2s-.15.4-.45.4a1.35,1.35,0,0,0-1,.63,11.46,11.46,0,0,0-.75,1c-.23.37-.6,1-1.1,1.85s-1,1.81-1.52,2.82-1,2-1.33,2.83a5.59,5.59,0,0,0-.55,1.9.62.62,0,0,0,.7.7,3,3,0,0,0,1.7-.7,14.88,14.88,0,0,0,1.93-1.73c.65-.68,1.25-1.36,1.8-2.05l1.32-1.62c.2.2.19.48,0,.82a7.52,7.52,0,0,1-.58.83,33,33,0,0,1-2.3,2.67,13.49,13.49,0,0,1-2.82,2.3A6,6,0,0,1,35.7,27.45ZM30.3,25.7A3.13,3.13,0,0,0,32,24.82a23.84,23.84,0,0,0,2.32-2.2,30.26,30.26,0,0,0,2.35-2.8,32.46,32.46,0,0,0,1.83-2.7,4.19,4.19,0,0,0,.72-1.87.81.81,0,0,0-.32-.75,1.62,1.62,0,0,0-.83-.2,3.24,3.24,0,0,0-1.72.58A8,8,0,0,0,34.85,16a11.22,11.22,0,0,0-1.42,1.72c-.55.79-1.1,1.65-1.63,2.58A26.12,26.12,0,0,0,30.45,23a5.71,5.71,0,0,0-.55,2.1C29.9,25.5,30,25.7,30.3,25.7Z"/><path class="cls-2" d="M43.9,28c-.13,0-.13-.13,0-.4a8.5,8.5,0,0,0,.47-1l.48-1.2c.33-.8.7-1.7,1.1-2.7s.78-2,1.15-2.93.69-1.76,1-2.45.48-1.12.58-1.32c-.47.5-1,1.12-1.68,1.88s-1.25,1.47-1.82,2.17-1,1.25-1.3,1.65c-.1.13-.18.2-.25.2s-.1-.08-.1-.25a1.23,1.23,0,0,1,.25-.75l2.12-2.7c.79-1,1.5-1.93,2.13-2.78s1-1.4,1.2-1.67l1.62-.3a3.26,3.26,0,0,0,1.48-.55.43.43,0,0,1,.3-.15c.07,0,.11.06.12.17a.49.49,0,0,1-.12.38,7.33,7.33,0,0,0-.88,1.3c-.38.67-.8,1.43-1.27,2.3L49.1,19.4c.33-.5.77-1.09,1.32-1.78a22.53,22.53,0,0,1,1.83-2,12.58,12.58,0,0,1,2-1.62,3.7,3.7,0,0,1,1.93-.65,2.11,2.11,0,0,1,1.1.27,1.84,1.84,0,0,1,.7,1,2,2,0,0,1,.15.8A3.22,3.22,0,0,1,57.72,17c-.28.52-.49.91-.62,1.18,0,.1-.15.19-.35.27s-.28.06-.25-.07a4.29,4.29,0,0,0,.07-.5,4.68,4.68,0,0,0,0-.55,3.59,3.59,0,0,0-.33-1.55,1.16,1.16,0,0,0-1.17-.7,3.28,3.28,0,0,0-2,1,24.94,24.94,0,0,0-2.3,2.3,20.38,20.38,0,0,0-2.3,3.22,22.63,22.63,0,0,0-1.4,3c-.2.53-.4,1.06-.6,1.57s-.35.93-.45,1.23a4.13,4.13,0,0,0-1.3.32A2.7,2.7,0,0,1,43.9,28Z"/><path class="cls-2" d="M57.5,28.05q-.2,0,0-.45a8.5,8.5,0,0,0,.47-1l.48-1.2c.33-.8.7-1.7,1.1-2.7s.78-2,1.15-2.93.69-1.76,1-2.45.48-1.12.58-1.32c-.47.5-1,1.12-1.68,1.88s-1.25,1.47-1.82,2.17-1,1.25-1.3,1.65c-.1.13-.18.2-.25.2s-.1-.08-.1-.25a1.23,1.23,0,0,1,.25-.75l2.12-2.7c.79-1,1.5-1.93,2.13-2.78s1-1.4,1.2-1.67l1.62-.3a3.26,3.26,0,0,0,1.48-.55.43.43,0,0,1,.3-.15c.07,0,.11.06.12.17a.49.49,0,0,1-.12.38,13,13,0,0,0-1,1.62c-.48.85-1,1.8-1.55,2.83s-1,2-1.52,2.8c.53-.63,1.06-1.23,1.57-1.8l1.08-1.2q.6-.6,1.65-1.5a20.69,20.69,0,0,1,2.2-1.65,5,5,0,0,1,2-.85A1.63,1.63,0,0,1,71,13.5h.3c.63,0,1,.23,1,.7a2.05,2.05,0,0,1-.15.7,4.27,4.27,0,0,1-.4.8c-.2.4-.53,1-1,1.87s-.88,1.63-1.25,2.33l2.35-2.35q.6-.6,1.65-1.5a20.69,20.69,0,0,1,2.2-1.65,5,5,0,0,1,2-.85A1.72,1.72,0,0,1,78,13.5h.28c.73,0,1.1.27,1.1.8a3.3,3.3,0,0,1-.65,1.6c-.23.37-.6,1-1.1,1.85s-1,1.81-1.53,2.82-.95,2-1.32,2.83a5.59,5.59,0,0,0-.55,1.9.62.62,0,0,0,.7.7,3.07,3.07,0,0,0,1.67-.78,17.45,17.45,0,0,0,2.1-1.87,26,26,0,0,0,1.88-2.1c.23-.27.46-.54.67-.83L81.6,20a.47.47,0,0,1,.1.35,1.15,1.15,0,0,1-.23.67c-.15.22-.29.41-.42.58-.63.83-1.36,1.7-2.18,2.6a12.67,12.67,0,0,1-2.67,2.27,6.83,6.83,0,0,1-3.1,1.08,1.8,1.8,0,0,1-1-.2.84.84,0,0,1-.5-.8A4.56,4.56,0,0,1,72,24.85c.25-.63.54-1.27.85-1.9s.56-1.15.73-1.55q.9-1.75,1.65-3.3c.5-1,.85-1.77,1-2.2a1.19,1.19,0,0,0,.15-.5c0-.23-.18-.25-.55-.05a10.43,10.43,0,0,0-1.33.9c-.51.4-1,.79-1.42,1.17s-.72.65-.85.78c-.57.57-1.24,1.33-2,2.3a33.92,33.92,0,0,0-2.17,3,11.86,11.86,0,0,0-1.4,2.93,1.46,1.46,0,0,1-1,.45.74.74,0,0,1-.58-.25.87.87,0,0,1-.22-.6,6,6,0,0,1,.62-2.38c.42-.91.76-1.67,1-2.27q.9-1.75,1.65-3.3c.5-1,.85-1.77,1-2.2a1.19,1.19,0,0,0,.15-.5c0-.23-.18-.25-.55-.05a10.43,10.43,0,0,0-1.33.9c-.51.4-1,.79-1.42,1.17s-.72.65-.85.78c-.8.83-1.54,1.68-2.23,2.55a14.62,14.62,0,0,0-1.72,2.8c-.27.6-.55,1.27-.85,2s-.55,1.35-.75,1.85a3.71,3.71,0,0,0-1.3.35A2.65,2.65,0,0,1,57.5,28.05Z"/><path class="cls-2" d="M81.5,27.4a3,3,0,0,1-1.43-.33c-.41-.21-.62-.69-.62-1.42a7.77,7.77,0,0,1,.9-3.53A24.73,24.73,0,0,1,82.2,19a17,17,0,0,1,1.92-2.18,13.26,13.26,0,0,1,2.33-1.77A16.75,16.75,0,0,1,88.62,14,6.32,6.32,0,0,1,91,13.4a2.39,2.39,0,0,1,1.4.42,1.77,1.77,0,0,1,.6,1.53,7.73,7.73,0,0,1-.88,3.47A23.11,23.11,0,0,1,90.25,22c-.3.4-.6.77-.9,1.12s-.64.71-1,1.08a5.84,5.84,0,0,0,3.4-1.08,11.56,11.56,0,0,0,2.7-2.62l.1-.1q.15,0,.15.3a1.18,1.18,0,0,1-.2.65A10.67,10.67,0,0,1,92,23.77a5.69,5.69,0,0,1-3.4,1.08h-.4a1.75,1.75,0,0,1-.4-.05A9.05,9.05,0,0,1,81.5,27.4Zm1.3-.85a3,3,0,0,0,1.52-.5,6.73,6.73,0,0,0,1.28-.95,16,16,0,0,0,1.55-1.83c.46-.65.9-1.3,1.3-2a27.17,27.17,0,0,0,1.4-2.85,8.07,8.07,0,0,0,.7-3.1c0-.77-.27-1.15-.8-1.15a3.22,3.22,0,0,0-1.58.55,7.5,7.5,0,0,0-1.37,1A17.82,17.82,0,0,0,84,19.55c-.44.77-.9,1.67-1.4,2.7a6.59,6.59,0,0,0-.75,2.85c0,.13,0,.26,0,.37a2.87,2.87,0,0,0,.08.38A.86.86,0,0,0,82.8,26.55Z"/><path class="cls-2" d="M94.25,28.05q-.21,0,0-.45a10.47,10.47,0,0,0,.47-1l.48-1.2c.33-.8.7-1.7,1.1-2.7s.78-2,1.15-2.93.69-1.76,1-2.45S98.9,16.2,99,16c-.47.5-1,1.12-1.68,1.88s-1.26,1.47-1.82,2.17-1,1.25-1.3,1.65c-.1.13-.19.2-.25.2s-.1-.08-.1-.25a1.23,1.23,0,0,1,.25-.75l2.12-2.7c.79-1,1.49-1.93,2.13-2.78s1-1.4,1.2-1.67l1.62-.3a3.26,3.26,0,0,0,1.48-.55.43.43,0,0,1,.3-.15c.06,0,.11.06.12.17a.49.49,0,0,1-.12.38,13,13,0,0,0-1,1.62c-.48.85-1,1.8-1.55,2.83s-1.06,2-1.52,2.8a18.72,18.72,0,0,1,1.3-1.55l1.35-1.45q.6-.6,1.65-1.5a20.69,20.69,0,0,1,2.2-1.65,4.89,4.89,0,0,1,2-.85,1.72,1.72,0,0,1,.37-.05H108c.73,0,1.1.27,1.1.8a3.3,3.3,0,0,1-.65,1.6c-.24.37-.59,1-1.08,1.82s-1,1.77-1.45,2.75-.9,1.91-1.25,2.75a5.64,5.64,0,0,0-.52,1.88.62.62,0,0,0,.7.7,3,3,0,0,0,1.87-.85A21.25,21.25,0,0,0,109,22.77q1.2-1.32,2.4-2.82a.52.52,0,0,1,.1.35,1.15,1.15,0,0,1-.23.67c-.15.22-.29.41-.42.58-.34.43-.78,1-1.33,1.62s-1.11,1.29-1.67,1.9a14.51,14.51,0,0,1-1.55,1.48,12.36,12.36,0,0,1-1.3.75,3.54,3.54,0,0,1-1.6.4,1.45,1.45,0,0,1-1.25-.48,1.85,1.85,0,0,1-.35-1.17,5.4,5.4,0,0,1,.3-1.7,17.75,17.75,0,0,1,.67-1.73c.25-.55.44-.95.58-1.22q.9-1.75,1.65-3.3c.5-1,.85-1.77,1-2.2a1.19,1.19,0,0,0,.15-.5c0-.23-.19-.25-.55-.05a10.43,10.43,0,0,0-1.33.9c-.51.4-1,.79-1.42,1.17s-.72.65-.85.78a23,23,0,0,0-3.23,4.32,33.94,33.94,0,0,0-2.32,4.88,3.65,3.65,0,0,0-1.3.35A2.79,2.79,0,0,1,94.25,28.05Z"/></svg>